<svg data-v-0dd9719b="" version="1.0" xmlns="http://www.w3.org/2000/svg" xmlns:xlink="http://www.w3.org/1999/xlink" width="100%" height="100%" viewBox="0 0 340.000000 250.000000" preserveAspectRatio="xMidYMid meet" color-interpolation-filters="sRGB" style="margin: auto;"> <rect data-v-0dd9719b="" x="0" y="0" width="100%" height="100%" fill="#fff" fill-opacity="1" class="background"></rect> <rect data-v-0dd9719b="" x="0" y="0" width="100%" height="100%" fill="url(#watermark)" fill-opacity="1" class="watermarklayer"></rect> <g data-v-0dd9719b="" fill="#333" class="icon-text-wrapper icon-svg-group iconsvg" transform="translate(81.98999786376953,76.5539665222168)"><g class="iconsvg-imagesvg" transform="translate(58.01000213623047,0)"><g><rect fill="#333" fill-opacity="0" stroke-width="2" x="0" y="0" width="60" height="57.18206770356816" class="image-rect"></rect> <svg x="0" y="0" width="60" height="57.18206770356816" filtersec="colorsb1345256014" class="image-svg-svg primary" style="overflow: visible;"><svg xmlns="http://www.w3.org/2000/svg" viewBox="-0.020415084436535835 0.001385807991027832 184.21417236328125 175.56202697753906"><path d="M152 13.23l2.13 1.93c1.06.73 1.86 1.74 2.87 2.53 20.09 20.42 29.38 45 26.76 73.46-3.08 33.33-19.93 58.18-49.4 73.79-22.64 12-46.66 13.82-71.07 5.53-9.75-3.31-17.68-9.28-22.12-19a34.4 34.4 0 0 1-2.63-21c2.71-14.57 16.88-22.1 30.65-16.37 3.76 1.56 7.43 3.35 11.23 4.8a34.14 34.14 0 0 0 24.63-.12c1.4-.51 2.79-1.06 4.19-1.59 7.6-2 15.39-3.11 22.66-6.39 16.08-7.24 26.6-19.23 31.86-36a70.21 70.21 0 0 0 3.09-20.65 56.81 56.81 0 0 0-7.58-28.12 49.5 49.5 0 0 0-6.27-9.18 6.35 6.35 0 0 1-1.66-2.47c-.02-.53-.09-1.11.66-1.15z" fill="#be1e2d"></path><path d="M73.1 49.54a63.76 63.76 0 0 0-41.37 23.18 56.32 56.32 0 0 0-13.11 32.21c-1 12.49 2.12 24 7.57 35a87.1 87.1 0 0 0 7 11.69c1.11 1 2.41 1.94 2.07 3.76a87.52 87.52 0 0 1-25.18-30.51A89.87 89.87 0 0 1 .7 72.12C3.56 48.39 14.29 28.71 32.33 13c5.86-5.09 12.31-9.07 19.93-11 12.59-3.12 24.45 1.6 31.06 12.41a24.27 24.27 0 0 1-3.57 29.45c-2.06 2.14-4.48 3.75-6.65 5.68z" fill="#fddd16"></path><path d="M151.66 14.18a62 62 0 0 1 14.1 26.26c5.69 22.76-2.2 54.76-29 68.8a81.2 81.2 0 0 1-26.76 8.17 2.38 2.38 0 0 1-.71-.15c10.63-6 17.71-14.67 20.22-26.77a38.18 38.18 0 0 0-19.35-41.32 56.52 56.52 0 0 0-11.77-4.74 3.43 3.43 0 0 1-2.44-2.14c-7.57-17 3.77-38.36 22.12-41.71 10-1.83 18.74.74 26.63 6.87.46.35.94.68 1.41 1 1.89 1.93 4.43 3.11 5.55 5.73z" fill="#25a9e1"></path><path d="M106.68 55.78c-10.45-5.85-21.83-7.18-33.58-6.24-1-.76-2.07-.36-3.12-.16A63.85 63.85 0 0 0 35.15 68C22.55 80.91 16.55 96.2 18 114.31a65.52 65.52 0 0 0 2.94 14.74 80.71 80.71 0 0 0 5.92 13.71c.95 1.75 1.93 3.51 3 5.17 1.71 2.56 3.88 4.77 5.45 7.44a3.29 3.29 0 0 0 .63.85c.32.27 1.1.56.9-.11a9.16 9.16 0 0 0-.85-1.53l-1-1.86-1.86-3.63c-2.07-6.1-3.42-12.23-2.51-18.81 2.34-17 20.66-29.12 37.22-24.38 5.15 1.47 9.76 4.22 14.76 6a27.83 27.83 0 0 0 23.63-1.68c10.69-5.76 16.32-14.94 16.44-27.14s-5.37-21.36-15.99-27.3z" fill="#f5903d"></path><path d="M151.66 14.18c-1.85-1.9-3.7-3.81-5.56-5.71 2.12 1.42 4.43 2.59 5.94 4.76zM157 17.69c-1.39-.35-2.09-1.49-2.87-2.53 1.43.36 2.14 1.47 2.87 2.53z" fill="#b65966"></path></svg></svg> <!----></g></g> <g transform="translate(0,64.18206787109375)"><g data-gra="path-name" fill-rule="" class="tp-name iconsvg-namesvg"><g transform="scale(1)"><g><path d="M20.59 0.61Q15.04 0.61 10.93-1.51 6.81-3.63 4.64-7.29 2.47-10.95 2.47-15.45L2.47-15.45Q2.47-20.29 4.97-24.1 7.47-27.91 11.84-30.01 16.2-32.1 21.65-32.1L21.65-32.1Q24.03-32.1 26.4-31.7 28.77-31.3 30.24-30.59L30.24-30.59Q30.64-30.39 30.77-30.19 30.89-29.98 30.94-29.43L30.94-29.43 31.55-22.87Q31.55-22.71 31.3-22.69 31.04-22.66 30.94-22.82L30.94-22.82Q29.43-26.6 26.4-28.72 23.37-30.84 19.28-30.84L19.28-30.84Q13.73-30.84 10.75-27.23 7.77-23.62 7.77-17.31L7.77-17.31Q7.77-12.37 9.59-8.48 11.41-4.59 14.61-2.42 17.82-0.25 21.81-0.25L21.81-0.25Q24.03-0.25 25.24-0.71 26.45-1.16 27.03-2.47 27.61-3.79 27.61-6.36L27.61-6.36Q27.61-8.98 27.31-10.02 27.01-11.05 25.97-11.41 24.94-11.76 22.36-11.76L22.36-11.76Q22.06-11.76 22.06-12.16L22.06-12.16Q22.06-12.32 22.13-12.44 22.21-12.57 22.31-12.57L22.31-12.57Q26.5-12.32 29.02-12.32L29.02-12.32Q31.55-12.32 34.27-12.47L34.27-12.47Q34.37-12.47 34.45-12.34 34.53-12.22 34.53-12.11L34.53-12.11Q34.53-11.76 34.27-11.76L34.27-11.76Q33.26-11.81 32.84-11.43 32.41-11.05 32.31-9.92 32.2-8.78 32.2-5.86L32.2-5.86Q32.2-3.58 32.38-2.62 32.56-1.67 32.56-1.41L32.56-1.41Q32.56-1.11 32.46-1.03 32.36-0.96 31.95-0.81L31.95-0.81Q25.59 0.61 20.59 0.61L20.59 0.61ZM49.72 0.61Q45.93 0.61 43.23-1.09 40.53-2.78 39.17-5.5 37.81-8.23 37.81-11.41L37.81-11.41Q37.81-14.89 39.5-17.79 41.19-20.7 44.07-22.41 46.94-24.13 50.33-24.13L50.33-24.13Q53.96-24.13 55.83-22.18 57.69-20.24 57.69-17.06L57.69-17.06Q57.69-16.51 57.57-16.25 57.44-16 57.09-16L57.09-16 52.9-16Q52.95-16.4 52.95-17.16L52.95-17.16Q52.95-19.99 51.86-21.48 50.78-22.97 48.66-22.97L48.66-22.97Q45.83-22.97 44.14-20.37 42.45-17.77 42.45-13.43L42.45-13.43Q42.45-7.92 44.97-4.57 47.5-1.21 51.99-1.21L51.99-1.21Q53.3-1.21 54.69-1.59 56.08-1.97 57.19-2.73L57.19-2.73 57.24-2.73Q57.39-2.73 57.52-2.55 57.64-2.37 57.54-2.22L57.54-2.22Q53.96 0.61 49.72 0.61L49.72 0.61ZM40.43-15.95L40.38-16.81 54.82-17.06 54.82-16 40.43-15.95ZM67.84-4.19Q67.84-2.68 68.04-1.94 68.24-1.21 68.88-0.91 69.51-0.61 70.77-0.61L70.77-0.61Q70.87-0.61 70.87-0.3 70.87 0 70.77 0L70.77 0Q69.36 0 68.5-0.05L68.5-0.05 65.52-0.1 62.69-0.05Q61.88 0 60.42 0L60.42 0Q60.32 0 60.32-0.3 60.32-0.61 60.42-0.61L60.42-0.61Q61.78-0.61 62.41-0.86 63.05-1.11 63.27-1.84 63.5-2.57 63.5-4.09L63.5-4.09 63.5-19.53Q63.5-21.05 63.27-21.76 63.05-22.46 62.44-22.74 61.83-23.02 60.57-23.02L60.57-23.02Q60.42-23.02 60.42-23.32 60.42-23.62 60.57-23.62L60.57-23.62 63.85-23.57 66.93-23.62Q67.54-23.62 67.69-23.45 67.84-23.27 67.84-22.66L67.84-22.66 67.84-4.19ZM65.97-17.46Q68.45-20.95 71.15-22.59 73.85-24.23 77.08-24.23L77.08-24.23Q80.66-24.23 82.98-22.21 85.31-20.19 85.31-15.55L85.31-15.55 85.31-4.09Q85.31-2.57 85.48-1.84 85.66-1.11 86.14-0.86 86.62-0.61 87.63-0.61L87.63-0.61Q87.73-0.61 87.73-0.3 87.73 0 87.63 0L87.63 0Q86.37 0 85.66-0.05L85.66-0.05 83.03-0.1 79.96-0.05Q79.2 0 77.94 0L77.94 0Q77.84 0 77.84-0.3 77.84-0.61 77.94-0.61L77.94-0.61Q79.25-0.61 79.88-0.91 80.51-1.21 80.74-1.94 80.96-2.68 80.96-4.19L80.96-4.19 80.96-14.23Q80.96-19.03 79.48-20.85 77.99-22.66 75.31-22.66L75.31-22.66Q72.89-22.66 70.84-21.3 68.8-19.94 66.73-16.81L66.73-16.81 65.97-17.46ZM103.58 0.61Q99.54 0.61 96.54-1.09 93.53-2.78 91.97-5.55 90.4-8.33 90.4-11.41L90.4-11.41Q90.4-15.34 92.2-18.25 93.99-21.15 97.27-22.69 100.55-24.23 104.99-24.23L104.99-24.23Q107.16-24.23 109.16-23.83 111.15-23.42 112.51-22.66L112.51-22.66Q112.82-22.46 112.92-22.26 113.02-22.06 113.07-21.55L113.07-21.55 113.37-16.81Q113.37-16.66 113.09-16.63 112.82-16.61 112.77-16.76L112.77-16.76Q109.58-23.22 103.78-23.22L103.78-23.22Q99.89-23.22 97.65-20.29 95.4-17.36 95.4-12.06L95.4-12.06Q95.4-8.63 96.54-5.98 97.67-3.33 99.79-1.87 101.91-0.4 104.79-0.4L104.79-0.4Q107.01-0.4 108.02-0.86 109.03-1.31 109.38-2.52 109.74-3.74 109.74-6.36L109.74-6.36Q109.74-7.67 109.51-8.2 109.28-8.73 108.55-8.91 107.82-9.09 106-9.09L106-9.09Q105.7-9.09 105.7-9.49L105.7-9.49Q105.7-9.64 105.77-9.77 105.85-9.89 105.95-9.89L105.95-9.89Q108.58-9.69 111.25-9.69L111.25-9.69Q112.46-9.69 115.29-9.79L115.29-9.79Q115.39-9.79 115.47-9.67 115.54-9.54 115.54-9.44L115.54-9.44Q115.54-9.09 115.29-9.09L115.29-9.09Q114.43-9.14 114.1-8.93 113.77-8.73 113.67-8.1 113.57-7.47 113.57-5.86L113.57-5.86Q113.57-3.58 113.7-2.68 113.83-1.77 113.83-1.41L113.83-1.41Q113.83-1.11 113.72-1.03 113.62-0.96 113.22-0.81L113.22-0.81Q109.84 0.61 103.58 0.61L103.58 0.61ZM137.25 0Q137.09 0 137.09-0.3 137.09-0.61 137.25-0.61L137.25-0.61Q139.21-0.61 139.21-1.46L139.21-1.46Q139.21-1.92 138.76-2.57L138.76-2.57 122.91-27.01Q121.55-29.13 120.26-30.03 118.97-30.94 117.46-30.94L117.46-30.94Q117.31-30.94 117.31-31.25 117.31-31.55 117.46-31.55L117.46-31.55 119.53-31.5Q120.94-31.4 121.6-31.4L121.6-31.4Q123.31-31.4 125.94-31.5L125.94-31.5 128.72-31.55Q128.82-31.55 128.82-31.25 128.82-30.94 128.72-30.94L128.72-30.94Q127.71-30.94 127.2-30.77 126.7-30.59 126.7-30.08L126.7-30.08Q126.7-29.58 127.15-28.92L127.15-28.92 143.25-4.19Q144.57-2.27 145.88-1.44 147.19-0.61 149.06-0.61L149.06-0.61Q149.21-0.61 149.21-0.3 149.21 0 149.06 0L149.06 0Q147.64 0 146.89-0.05L146.89-0.05 143.91-0.1 139.82-0.05Q138.91 0 137.25 0L137.25 0ZM117.16 0Q117.01 0 117.01-0.3 117.01-0.61 117.16-0.61L117.16-0.61Q118.77-0.61 120.84-2.09 122.91-3.58 125.13-6.61L125.13-6.61 131.85-15.7 132.65-15.04 126.55-6.41Q124.83-3.94 124.83-2.52L124.83-2.52Q124.83-1.62 125.54-1.11 126.24-0.61 127.61-0.61L127.61-0.61Q127.71-0.61 127.71-0.3 127.71 0 127.61 0L127.61 0Q125.99 0 125.13-0.05L125.13-0.05 121.5-0.1 119.18-0.05Q118.57 0 117.16 0L117.16 0ZM133.56-15.8L132.75-16.46 138.76-24.99Q140.53-27.51 140.53-29.02L140.53-29.02Q140.53-30.94 137.8-30.94L137.8-30.94Q137.7-30.94 137.7-31.25 137.7-31.55 137.8-31.55L137.8-31.55 140.27-31.5Q142.29-31.4 143.91-31.4L143.91-31.4Q144.92-31.4 146.23-31.5L146.23-31.5 148.25-31.55Q148.4-31.55 148.4-31.25 148.4-30.94 148.25-30.94L148.25-30.94Q146.58-30.94 144.46-29.4 142.34-27.86 140.12-24.73L140.12-24.73 133.56-15.8ZM170.91-19.43Q170.91-20.95 170.71-21.68 170.51-22.41 169.9-22.71 169.3-23.02 168.04-23.02L168.04-23.02Q167.89-23.02 167.89-23.32 167.89-23.62 168.04-23.62L168.04-23.62 170.31-23.57Q172.23-23.47 173.29-23.47L173.29-23.47Q174.35-23.47 176.06-23.57L176.06-23.57 178.33-23.62Q178.49-23.62 178.49-23.32 178.49-23.02 178.33-23.02L178.33-23.02Q177.02-23.02 176.39-22.74 175.76-22.46 175.53-21.76 175.31-21.05 175.31-19.53L175.31-19.53 175.31-4.09Q175.31-2.57 175.53-1.84 175.76-1.11 176.37-0.86 176.97-0.61 178.23-0.61L178.23-0.61Q178.38-0.61 178.38-0.3 178.38 0 178.23 0L178.23 0 174.95-0.05 171.87 0Q171.27 0 171.09-0.15 170.91-0.3 170.91-0.96L170.91-0.96 170.91-19.43ZM172.78-6.16Q170.31-2.62 167.61-1.01 164.91 0.61 161.73 0.61L161.73 0.61Q158.19 0.61 155.85-1.26 153.5-3.13 153.5-6.86L153.5-6.86 153.5-19.53Q153.5-21.05 153.32-21.76 153.15-22.46 152.67-22.74 152.19-23.02 151.13-23.02L151.13-23.02Q151.03-23.02 151.03-23.32 151.03-23.62 151.13-23.62L151.13-23.62 153.1-23.57Q154.81-23.47 155.72-23.47L155.72-23.47Q156.88-23.47 158.8-23.57L158.8-23.57 160.87-23.62Q160.97-23.62 160.97-23.32 160.97-23.02 160.87-23.02L160.87-23.02Q159.56-23.02 158.9-22.71 158.24-22.41 158.02-21.68 157.79-20.95 157.79-19.43L157.79-19.43 157.79-8.23Q157.79-4.34 159.36-2.65 160.92-0.96 163.54-0.96L163.54-0.96Q165.87-0.96 167.96-2.32 170.06-3.68 172.08-6.81L172.08-6.81 172.78-6.16Z" transform="translate(-2.4700000286102295, 32.099998474121094)"></path></g> <!----> <!----> <!----> <!----> <!----> <!----> <!----></g></g> <!----></g></g><defs v-gra="od"></defs></svg>